<svg width="1024" height="1024" viewBox="0 0 1024 1024" fill="none" xmlns="http://www.w3.org/2000/svg">
  <defs>
    <linearGradient id="bg" x1="128" y1="120" x2="896" y2="904" gradientUnits="userSpaceOnUse">
      <stop offset="0" stop-color="#0F2433"/>
      <stop offset="0.55" stop-color="#17445B"/>
      <stop offset="1" stop-color="#1E6B62"/>
    </linearGradient>
    <linearGradient id="accent" x1="256" y1="712" x2="768" y2="856" gradientUnits="userSpaceOnUse">
      <stop offset="0" stop-color="#FF8757"/>
      <stop offset="1" stop-color="#F2C14E"/>
    </linearGradient>
  </defs>

  <rect x="88" y="88" width="848" height="848" rx="224" fill="url(#bg)"/>
  <rect x="204" y="160" width="616" height="704" rx="112" fill="#F7F1E6"/>
  <rect x="264" y="232" width="496" height="72" rx="36" fill="#DDE8E2"/>

  <g stroke="#17445B" stroke-linecap="round" stroke-linejoin="round" stroke-width="34">
    <path d="M312 412L350 450L420 374"/>
    <path d="M312 558L350 596L420 520"/>
    <path d="M312 704L350 742L420 666"/>
  </g>

  <g fill="#17445B">
    <rect x="474" y="384" width="208" height="28" rx="14"/>
    <rect x="474" y="530" width="180" height="28" rx="14"/>
    <rect x="474" y="676" width="224" height="28" rx="14"/>
  </g>

  <path d="M252 718H772V792L706 850L640 792L574 850L508 792L442 850L376 792L310 850L252 798V718Z" fill="url(#accent)"/>
</svg>
